<svg width="351" height="475" viewBox="0 0 351 475" fill="none" xmlns="http://www.w3.org/2000/svg">
<g filter="url(#filter0_d_1782_4219)">
<path d="M270.555 67.1157C287.355 103.116 331.555 120.116 351.555 124.116V351.116C346.555 360.782 325.555 404.116 298.555 426.116C224.555 486.412 105.555 472.116 36.5548 426.116C-32.4452 380.116 25.5548 305.116 52.5548 245.116C79.5548 185.116 66.5548 155.116 66.5548 87.1157C66.5548 19.1157 107.555 2.11567 157.555 0.115671C207.555 -1.88433 249.555 22.1157 270.555 67.1157Z" fill="url(#paint0_linear_1782_4219)"/>
</g>
<g filter="url(#filter1_d_1782_4219)">
<path d="M102.555 84.6849H29.5019C26.0019 81.0182 20.9019 71.5849 28.5019 63.1849C36.7074 54.1157 49.3352 61.6849 55.0019 66.1849C54.8352 59.6849 58.0019 46.3849 72.0019 45.1849C86.0019 43.9849 92.1686 58.6849 93.5019 66.1849C97.1686 62.0182 105.655 56.7157 112.055 61.1157C118.455 65.5157 117.555 78.1157 102.555 84.6849Z" fill="#5FFFE0"/>
</g>
<g filter="url(#filter2_d_1782_4219)">
<path d="M127.435 321.303C124.842 313.457 116.61 288.254 115.667 283.126C114.556 277.029 110.398 256.123 109.624 251.52C108.833 246.918 107.419 237.577 112.418 234.52C117.418 231.463 119.826 236.354 121.24 238.324C122.182 239.632 123.58 246.018 122.788 253.949C122.014 261.88 124.001 270.303 124.741 279.882C128.849 288.271 132.502 312.557 133.478 319.537L127.435 321.303Z" fill="#FAC1AD"/>
<path d="M116.324 231.973C116.324 231.973 107.789 224.619 105.6 220.594C103.412 216.569 107.688 205.123 107.688 205.123L98.1258 203.119C98.1258 203.119 92.6883 213.241 89.355 224.11C93.5468 241.5 119.186 244.744 116.324 231.973Z" fill="#FAC1AD"/>
<path d="M115.011 182.331C115.011 182.331 116.341 185.185 116.593 187.613C116.846 190.042 121.004 192.233 122.418 192.895C123.58 194.152 122.368 195.799 120.297 196.546C119.169 198.143 119.876 199.06 120.129 199.535C119.556 200.164 118.95 200.452 118.95 200.452L119.64 201.709C119.64 201.709 118.883 202.219 118.95 203.645C119.018 205.072 120.061 209.47 115.028 209.012C109.994 208.553 108.546 208.417 106.459 210.268C104.388 212.12 103.126 217.316 103.126 217.316L93.4795 213.631C93.4795 213.631 96.3919 205.666 95.8868 202.966C95.3986 200.282 93.0586 199.196 91.897 196.665C90.7354 194.152 92.4021 192.216 94.0518 192.385C95.2976 189.787 95.2134 184.913 96.7959 183.911C98.3783 182.909 115.011 182.331 115.011 182.331Z" fill="#FAC1AD"/>
<path d="M131.441 313.661C131.441 313.661 144.387 342.379 145.027 347.474C145.667 352.552 148.791 409.841 148.555 415.616C145.727 417.518 139.555 415.616 139.555 415.616C139.555 415.616 138.798 407.526 136.728 398.542C134.388 388.352 130.532 376.991 130.6 373.017C130.718 365.527 130.835 357.783 131.441 354.335C132.048 350.871 114.455 321.779 114.455 321.779L131.441 313.661Z" fill="#FAC1AD"/>
<path d="M108.862 315.342C108.862 315.342 109.137 349.595 107.387 354.395C105.636 359.195 76.5285 407.362 73.6811 412.374C70.2891 412.74 65.9027 409.289 65.9027 409.289C65.9027 409.289 77.934 375.027 81.444 368.444C84.9541 361.861 90.0806 356.931 92.182 354.137C94.3044 351.355 89.8688 316.797 89.8688 316.797L108.862 315.342Z" fill="#FAC1AD"/>
<path d="M87.0549 276.616C87.0549 276.616 63.5476 342.736 60.147 352.603C56.7464 362.47 77.1668 368.261 95.2303 368.907C113.311 369.552 151.374 369.977 154.555 368.907C157.737 367.837 152.922 336.724 148.428 330.508C143.933 324.292 119.686 285.226 116.555 276.616C113.424 268.005 87.0549 276.616 87.0549 276.616Z" fill="#FFC100"/>
<path d="M87.4022 223.464C87.4022 223.464 84.5549 238.616 84.5549 258.116C84.5549 264.616 86.0549 278.616 86.0549 278.616C86.0549 278.616 101.106 285.901 119.624 283.116C116.24 273.616 117.756 269.616 119.624 263.782C123.613 251.316 130.179 244.082 116.24 231.633C109.456 230.308 106.072 231.548 103.681 228.423C99.8766 223.396 93.7993 220.543 87.4022 223.464Z" fill="white"/>
<path d="M100.382 232.533C99.0686 230.512 96.8801 225.485 91.7455 228.321C86.611 231.141 87.5874 240.532 88.1429 245.169C88.7153 249.805 91.5603 272.002 92.3684 278.15C93.1765 284.297 119.018 314.171 119.018 314.171C121.61 314.171 124.64 312.218 124.64 312.218C124.64 312.218 106.24 284.281 101.897 274.21C101.627 264.614 100.028 256.106 101.19 248.209C102.351 240.311 101.257 233.875 100.382 232.533Z" fill="#FAC1AD"/>
<path d="M102.503 201.2C101.745 197.837 102.284 195.476 103.597 193.659C104.893 191.842 105.634 190.568 105.634 190.042C105.634 190.042 115.92 187.002 118.31 187.138C119.506 182.467 115.954 175.64 110.886 173.229C105.802 170.817 94.3044 168.847 87.4022 176.251C87.4022 176.251 77.5035 179.852 77.5035 196.835C77.5035 207.891 58.8507 225.859 62.3523 230.801C70.7696 242.689 92.6546 237.594 101.072 234.198C106.627 231.956 100.853 230.24 102.755 220.611C104.439 212.12 98.9002 203.221 96.375 198.397C94.7421 195.289 93.5468 192.606 94.7421 191.638C95.9373 190.653 99.8935 190.891 100.196 194.118C100.5 197.361 100.196 200.894 101.308 202.473C101.308 202.49 103.025 203.509 102.503 201.2Z" fill="#522D0F"/>
<path d="M91.1226 178.239C103.765 176.642 116.678 176.404 128.546 178.867C136.576 180.531 144.051 183.418 150.431 187.324C140.684 184.93 133.377 189.94 125.011 193.235C116.644 196.529 108.597 200.486 99.8935 203.051C91.2068 205.615 81.4933 206.668 73.5642 203.968C66.561 201.59 61.8473 196.614 57.4198 191.842L55.871 189.379C54.6926 187.494 56.2245 185.066 58.9686 184.42C69.6249 181.941 80.3148 179.597 91.1226 178.239Z" fill="#FFC100"/>
<path d="M121.055 183.367C122.738 182.484 118.024 169.747 117.536 168.677C114.624 162.308 107.183 157.757 97.7218 159.489C81.7121 162.444 81.5606 175.878 80.6179 185.558C80.6179 185.558 97.0652 196.037 121.055 183.367Z" fill="#FFC100"/>
<path d="M81.0219 181.295C84.574 182.943 100.196 188.904 120.432 177.22C121.29 180.243 121.795 182.977 121.055 183.384C97.0652 196.071 80.6179 185.575 80.6179 185.575C80.7525 184.2 80.8704 182.756 81.0219 181.295Z" fill="#D99800"/>
<path d="M116.627 311.334C116.627 311.334 120.667 324.666 127.435 326.67C132.031 328.029 127.435 320.471 127.435 320.471C127.435 320.471 128.226 321.117 128.866 321.117C129.505 321.117 128.63 319.35 127.755 317.822C126.879 316.293 126.256 314.154 122.452 308.838C121.307 307.225 116.627 311.334 116.627 311.334Z" fill="#FAC1AD"/>
<path d="M61.5549 413.116C62.3549 412.316 65.5549 408.449 67.0549 406.616C68.2549 408.616 72.8882 410.116 75.0549 410.616C75.5549 411.949 76.9549 414.816 78.5549 415.616C80.5549 416.616 83.8179 417.966 85.0549 419.616C86.5549 421.616 88.0549 425.116 86.5549 426.616C84.0549 429.116 76.5549 426.616 73.5549 425.116C71.6575 424.167 61.5549 418.616 60.5549 417.116C59.5549 415.616 60.5549 414.116 61.5549 413.116Z" fill="#FFC100"/>
<path d="M137.759 423.513C138.11 422.437 139.212 417.541 139.72 415.227C141.695 416.467 146.505 415.706 148.664 415.171C149.713 416.133 152.26 418.055 154.048 418.044C156.284 418.03 159.805 417.757 161.655 418.667C163.898 419.771 166.82 422.213 166.162 424.229C165.065 427.59 157.246 428.757 153.892 428.778C151.771 428.792 140.249 428.417 138.679 427.532C137.108 426.647 137.32 424.857 137.759 423.513Z" fill="#FFC100"/>
</g>
<g filter="url(#filter3_d_1782_4219)">
<path d="M237.742 316.81C237.742 316.81 225.637 351.845 222.092 356.105C218.547 360.365 171.158 399.036 166.419 403.112C162.8 402.267 159.531 397.163 159.531 397.163C159.531 397.163 184.309 366.553 190.297 361.1C196.285 355.646 203.339 352.451 206.535 350.376C209.712 348.301 217.666 311.467 217.666 311.467L237.742 316.81Z" fill="#E0A394"/>
<path d="M232.213 344.152C235.317 337.945 249.461 281.996 249.461 281.996C249.461 281.996 223.011 272.999 219.503 277.699C215.976 282.4 209.345 291.838 210.521 295.694C211.696 299.568 207.949 331.812 207.031 336.403C205.194 343.748 179.479 367.618 179.479 367.618L196.01 384.144C196.01 384.144 221.725 363.946 225.399 358.437C229.072 352.929 232.213 344.152 232.213 344.152Z" fill="#029F80"/>
<path d="M239.212 306.142C239.212 306.142 253.337 337.192 254.035 342.683C254.733 348.173 257.812 410.181 257.555 416.425C254.469 418.481 247.881 416.425 247.881 416.425C247.881 416.425 247.238 407.611 244.979 397.897C242.426 386.88 238.22 374.614 238.293 370.299C238.422 362.201 238.55 353.847 239.212 350.101C239.873 346.355 220.678 314.901 220.678 314.901L239.212 306.142Z" fill="#E0A394"/>
<path d="M257.745 330.068C242.206 296.08 221.817 275.331 221.817 275.331C221.817 275.331 197.149 288.441 198.159 294.225C198.159 294.225 234.583 347.438 234.583 351.111C234.583 354.783 238.256 384.162 238.256 384.162H260.298C260.316 384.162 260.684 336.55 257.745 330.068Z" fill="#00AF8D"/>
<path d="M240.901 233.52C240.901 233.52 246.834 253.939 251.114 262.826C255.394 271.713 279.529 288.606 289.485 293.527C293.14 298.632 292.056 303.388 293.618 304.783C295.161 306.179 304.951 304.783 303.408 296.41C301.865 288.037 291.414 285.521 285.756 281.427C280.117 277.332 264.78 258.291 261.584 256.326C258.627 249.128 253.539 218.28 248.836 213.157C244.704 208.676 240.901 233.52 240.901 233.52Z" fill="#E0A394"/>
<path d="M200.418 207.685C200.418 207.685 177.532 207.446 170.625 214.828C163.737 222.209 168.403 268.004 168.66 278.599C168.899 289.194 193.787 295.584 201.41 288.698C209.051 281.794 200.418 207.685 200.418 207.685Z" fill="#00B793"/>
<path d="M218.162 205.738C218.162 205.738 190.077 204.49 183.924 210.88C177.77 217.288 185.228 267.876 183.924 277.369C182.601 286.844 189.875 294.115 206.48 290.167C223.084 286.219 218.162 205.738 218.162 205.738Z" fill="#029F80"/>
<path d="M218.988 190.608C218.988 190.608 220.145 208.162 215.866 212.275C225.564 219.492 234.84 211.008 234.84 211.008C234.84 211.008 230.652 202.874 237.907 193.087C235.611 189.965 218.988 190.608 218.988 190.608Z" fill="#E0A394"/>
<path d="M211.457 210.329C211.457 210.329 215.866 210.88 218.033 207.666C221.009 208.089 234.436 209.796 234.436 209.796C234.436 209.796 237.209 212.385 239.91 211.908C237.852 216.756 235.722 240.167 228.962 237.431C222.221 234.695 211.457 210.329 211.457 210.329Z" fill="#E0A394"/>
<path d="M210.429 170.685C210.429 170.685 207.067 181.923 211.053 185.742C214.911 182.804 216.031 171.622 216.031 171.622L210.429 170.685Z" fill="#522D0F"/>
<path d="M212.872 173.219C212.872 173.219 208.427 188.46 210.135 194.225C211.843 199.991 215.37 203.755 218.07 204.526C220.77 205.316 232.048 203.517 235.336 194.758C240.093 194.225 241.618 189.984 241.361 187.597C241.085 185.228 237.007 184.714 235.74 186.33C237.301 178.93 236.567 172.319 236.567 172.319L212.872 173.219Z" fill="#E0A394"/>
<path d="M214.157 194.446L222.533 194.868C222.533 194.868 220.348 197.935 217.574 197.935C214.819 197.935 214.157 194.446 214.157 194.446Z" fill="white"/>
<path d="M233.83 175.863C233.83 175.863 232.948 180.215 234.068 182.4C234.693 184.659 233.903 188.368 233.903 188.368L235.85 188.698C235.85 188.698 239.505 185.228 240.295 186.018C241.085 186.807 242.959 191.838 236.273 194.611C235.354 194.776 234.528 197.145 234.656 200.322C236.75 200.817 246.008 190.131 246.761 183.098C247.514 176.065 248.763 166.829 241.948 166.444C241.361 161.725 237.852 158.015 229.127 157.189C220.403 156.363 215.351 162.092 211.108 165.011C206.884 167.931 204.569 174.192 216.747 175.221C228.981 176.267 233.83 175.863 233.83 175.863Z" fill="#522D0F"/>
<path d="M214.231 209.649C214.231 209.649 221.211 217.068 229.091 217.068C232.764 217.068 238.275 217.068 238.734 211.137C246.944 213.597 252.639 218.004 252.639 218.004C252.639 218.004 257.414 232.143 252.161 252.158C246.908 272.191 251.132 305.206 251.132 305.206C251.132 305.206 210.723 308.878 195.532 298.393C198.159 281.317 199.279 253.149 198.287 240.681C197.296 228.195 195.532 215.544 195.532 215.544C195.532 215.544 208.151 209.319 214.231 209.649Z" fill="#FFC100"/>
<path d="M235.501 210.604C235.501 210.604 241.746 211.816 245.089 216.645C248.028 220.887 254.255 234.089 250.379 264.607C254.604 256.583 256.496 232.786 255.247 225.771C253.998 218.775 249.847 208.107 235.501 210.604Z" fill="#00B793"/>
<path d="M192.942 218.261C192.942 218.261 177.844 254.214 176.191 263.946C174.556 273.678 184.456 301.405 189.746 311.173C189.765 317.453 186.146 320.703 186.605 322.741C187.065 324.761 195.844 329.278 199.426 321.566C203.008 313.836 195.936 305.738 193.695 299.146C191.455 292.554 189.948 268.151 188.479 264.699C190.242 257.115 202.475 230.711 205.139 225.22C206.443 222.521 207.233 216.443 203.008 214.313C195.844 210.678 192.942 218.261 192.942 218.261Z" fill="#E0A394"/>
<path d="M207.839 179.499L217.574 181.115C217.574 181.115 217.151 186.495 213.166 186.844C209.198 187.174 206.425 185.21 207.839 179.499Z" fill="#191919"/>
<path d="M220.035 181.519L229.881 182.363C229.881 182.363 229.881 187.762 225.931 188.405C221.982 189.066 219.062 187.303 220.035 181.519Z" fill="#191919"/>
<path d="M220.403 182.639L216.913 182.033L217.298 181.06L220.164 181.519L220.403 182.639Z" fill="#191919"/>
<path d="M238.275 186.679L229.587 183.667L229.881 182.363L239.101 186.164L238.275 186.679Z" fill="#191919"/>
<path d="M200.969 212.679C200.969 212.679 196.028 211.559 192.355 217.068C188.681 222.576 186.844 229.921 186.844 229.921L201.539 237.266C201.539 237.266 207.049 224.413 207.049 220.74C207.049 217.068 207.747 213.799 200.969 212.679Z" fill="#FFC100"/>
<path d="M193.163 211.559C193.163 211.559 206.461 209.686 209.933 223.843C213.423 237.982 205.671 258.493 195.532 270.263C194.338 278.122 195.826 280.454 195.826 280.454C195.826 280.454 206.902 270.979 214.36 246.392C221.817 221.787 212.761 208.107 204.569 207.685C196.377 207.262 193.163 211.559 193.163 211.559Z" fill="#00B793"/>
<path d="M153.136 402.057C154.098 401.342 158.046 397.784 159.9 396.095C160.849 398.375 165.471 400.66 167.664 401.517C167.983 402.991 169.008 406.21 170.561 407.295C172.502 408.65 175.712 410.568 176.754 412.486C178.017 414.813 179.049 418.71 177.247 420.051C174.243 422.285 166.771 418.51 163.859 416.477C162.018 415.191 152.289 407.819 151.473 406.093C150.656 404.368 151.935 402.95 153.136 402.057Z" fill="#522D0F"/>
<path d="M245.202 424.348C245.591 423.159 246.809 417.746 247.37 415.188C249.554 416.558 254.871 415.718 257.257 415.126C258.418 416.19 261.232 418.314 263.21 418.302C265.682 418.287 269.574 417.985 271.619 418.991C274.099 420.211 277.329 422.91 276.601 425.14C275.389 428.855 266.745 430.145 263.037 430.169C260.692 430.183 247.956 429.769 246.219 428.791C244.483 427.813 244.717 425.834 245.202 424.348Z" fill="#522D0F"/>
</g>
<defs>
<filter id="filter0_d_1782_4219" x="0" y="0" width="355.555" height="474.155" filterUnits="userSpaceOnUse" color-interpolation-filters="sRGB">
<feFlood flood-opacity="0" result="BackgroundImageFix"/>
<feColorMatrix in="SourceAlpha" type="matrix" values="0 0 0 0 0 0 0 0 0 0 0 0 0 0 0 0 0 0 127 0" result="hardAlpha"/>
<feOffset dy="4"/>
<feGaussianBlur stdDeviation="2"/>
<feComposite in2="hardAlpha" operator="out"/>
<feColorMatrix type="matrix" values="0 0 0 0 0 0 0 0 0 0 0 0 0 0 0 0 0 0 0.25 0"/>
<feBlend mode="normal" in2="BackgroundImageFix" result="effect1_dropShadow_1782_4219"/>
<feBlend mode="normal" in="SourceGraphic" in2="effect1_dropShadow_1782_4219" result="shape"/>
</filter>
<filter id="filter1_d_1782_4219" x="20.5549" y="45.1157" width="99.2618" height="47.5692" filterUnits="userSpaceOnUse" color-interpolation-filters="sRGB">
<feFlood flood-opacity="0" result="BackgroundImageFix"/>
<feColorMatrix in="SourceAlpha" type="matrix" values="0 0 0 0 0 0 0 0 0 0 0 0 0 0 0 0 0 0 127 0" result="hardAlpha"/>
<feOffset dy="4"/>
<feGaussianBlur stdDeviation="2"/>
<feComposite in2="hardAlpha" operator="out"/>
<feColorMatrix type="matrix" values="0 0 0 0 0 0 0 0 0 0 0 0 0 0 0 0 0 0 0.25 0"/>
<feBlend mode="normal" in2="BackgroundImageFix" result="effect1_dropShadow_1782_4219"/>
<feBlend mode="normal" in="SourceGraphic" in2="effect1_dropShadow_1782_4219" result="shape"/>
</filter>
<filter id="filter2_d_1782_4219" x="51.4698" y="159.118" width="118.787" height="277.66" filterUnits="userSpaceOnUse" color-interpolation-filters="sRGB">
<feFlood flood-opacity="0" result="BackgroundImageFix"/>
<feColorMatrix in="SourceAlpha" type="matrix" values="0 0 0 0 0 0 0 0 0 0 0 0 0 0 0 0 0 0 127 0" result="hardAlpha"/>
<feOffset dy="4"/>
<feGaussianBlur stdDeviation="2"/>
<feComposite in2="hardAlpha" operator="out"/>
<feColorMatrix type="matrix" values="0 0 0 0 0 0 0 0 0 0 0 0 0 0 0 0 0 0 0.25 0"/>
<feBlend mode="normal" in2="BackgroundImageFix" result="effect1_dropShadow_1782_4219"/>
<feBlend mode="normal" in="SourceGraphic" in2="effect1_dropShadow_1782_4219" result="shape"/>
</filter>
<filter id="filter3_d_1782_4219" x="147.215" y="157.108" width="160.357" height="281.06" filterUnits="userSpaceOnUse" color-interpolation-filters="sRGB">
<feFlood flood-opacity="0" result="BackgroundImageFix"/>
<feColorMatrix in="SourceAlpha" type="matrix" values="0 0 0 0 0 0 0 0 0 0 0 0 0 0 0 0 0 0 127 0" result="hardAlpha"/>
<feOffset dy="4"/>
<feGaussianBlur stdDeviation="2"/>
<feComposite in2="hardAlpha" operator="out"/>
<feColorMatrix type="matrix" values="0 0 0 0 0 0 0 0 0 0 0 0 0 0 0 0 0 0 0.25 0"/>
<feBlend mode="normal" in2="BackgroundImageFix" result="effect1_dropShadow_1782_4219"/>
<feBlend mode="normal" in="SourceGraphic" in2="effect1_dropShadow_1782_4219" result="shape"/>
</filter>
<linearGradient id="paint0_linear_1782_4219" x1="177.777" y1="0" x2="177.777" y2="466.155" gradientUnits="userSpaceOnUse">
<stop stop-color="#04EBBE"/>
<stop offset="1" stop-color="#00CFA7"/>
</linearGradient>
</defs>
</svg>
